<svg width="200" height="120" viewBox="0 0 200 120" fill="none" xmlns="http://www.w3.org/2000/svg">
<path d="M167.836 57.4316V62.0167H161.441V57.4316H158.295V69.5504H161.441V64.6576H167.836V69.5504H170.999V57.4316H167.836Z" fill="white"/>
<path fill-rule="evenodd" clip-rule="evenodd" d="M112.764 57.1572C113.773 57.1572 114.833 57.6919 115.355 58.7936L120.504 69.5515H117.155L116.028 66.9916H109.499L108.372 69.5515H105.023L110.172 58.7936C110.694 57.6919 111.754 57.1572 112.764 57.1572ZM112.511 60.1705L110.576 64.5611H114.951L113.016 60.1705C112.966 60.0247 112.848 59.9923 112.764 59.9923C112.68 59.9923 112.579 60.0409 112.511 60.1705Z" fill="white"/>
<path d="M77.8488 55.2451C76.368 55.2451 75.4258 56.0066 74.7359 57.5295L70.6302 66.6348L66.5245 57.5295C65.8346 56.0066 64.8923 55.2451 63.4116 55.2451C62.0318 55.2451 60.6016 56.201 60.6016 58.2586V69.5511H63.7481V58.5826L67.8875 67.6231C68.4427 68.8869 69.3345 69.6807 70.6302 69.6807C71.9258 69.6807 72.8176 68.8869 73.3729 67.6231L77.5122 58.5826V69.5511H80.6588V58.2748C80.6588 56.201 79.2286 55.2451 77.8488 55.2451Z" fill="white"/>
<path d="M86.1756 66.9906C86.0241 66.9906 85.9063 66.8772 85.9063 66.7314V64.5765H93.7643V62.0977H85.9063V60.2507C85.9063 60.1049 86.0241 59.9915 86.1756 59.9915H93.9494V57.4316H84.6275C83.5338 57.4316 82.7598 58.3065 82.7598 59.23V67.7197C82.7598 68.6432 83.5506 69.518 84.6275 69.518H93.9494V66.9582H86.1756V66.9906Z" fill="white"/>
<path d="M99.2989 69.5508V60.2673C99.2989 60.1215 99.4167 60.0081 99.5681 60.0081H107.342V57.4482H98.0201C96.9264 57.4482 96.1523 58.3231 96.1523 59.2466V69.5508H99.2989Z" fill="white"/>
<path fill-rule="evenodd" clip-rule="evenodd" d="M149.545 57.2549C154.307 57.2549 156.209 59.2315 156.209 63.4763C156.209 67.6563 154.274 69.6653 149.512 69.6653H148.468C143.707 69.6653 141.771 67.6563 141.771 63.4763C141.771 59.2315 143.656 57.2549 148.435 57.2549H149.545ZM148.485 67.1535H149.494C152.102 67.1535 153.146 66.0194 153.146 63.4758V63.4596C153.146 60.9969 152.17 59.7818 149.494 59.7818H148.485C145.725 59.7818 144.833 60.9969 144.833 63.4596V63.4758C144.833 66.0194 145.86 67.1535 148.485 67.1535Z" fill="white"/>
<path fill-rule="evenodd" clip-rule="evenodd" d="M126.744 55.5361H132.987C137.631 55.5361 139.499 57.8044 139.516 61.7576C139.516 62.3732 139.465 62.9403 139.381 63.4749C138.893 66.2778 137.177 67.9952 132.819 67.9952H131.456V69.5505H128.309V67.9952H126.929C122.571 67.9952 120.855 66.2778 120.367 63.4749C120.266 62.9403 120.232 62.3732 120.232 61.7576C120.232 57.8044 122.083 55.5361 126.744 55.5361ZM128.29 65.4349H126.843C124.706 65.4349 123.949 64.6734 123.477 63.4745C123.292 63.0047 123.292 62.4214 123.292 61.7571C123.292 59.1811 124.538 58.0794 126.355 58.0794H128.29V65.4349ZM136.251 63.4745C135.78 64.6734 135.006 65.4349 132.886 65.4349H131.439V58.0794H133.374C135.191 58.0794 136.436 59.1649 136.436 61.7571C136.436 62.4214 136.436 63.0047 136.251 63.4745Z" fill="white"/>
<path fill-rule="evenodd" clip-rule="evenodd" d="M43.1837 63.3783V50.8545C49.4095 51.5836 54.2387 56.7033 54.2556 62.8923C54.2556 69.5998 48.6018 75.0435 41.6356 75.0435C41.2486 75.0435 40.8616 75.0273 40.4746 74.9949V64.4962C40.4746 64.4314 40.5251 64.3666 40.6092 64.3666H42.1573C42.7125 64.3666 43.1837 63.9292 43.1837 63.3783ZM42.9119 69.5352C42.0369 69.5352 41.3302 68.8547 41.3302 68.0123C41.3302 67.1698 42.0369 66.4893 42.9119 66.4893C43.7869 66.4893 44.4936 67.1698 44.4936 68.0123C44.4936 68.8547 43.7869 69.5352 42.9119 69.5352ZM45.0331 68.0123C45.0331 68.8547 45.7398 69.5352 46.6148 69.5352C47.4898 69.5352 48.1965 68.8547 48.1965 68.0123C48.1965 67.1698 47.4898 66.4893 46.6148 66.4893C45.7398 66.4893 45.0331 67.1698 45.0331 68.0123ZM48.7345 68.0123C48.7345 68.8547 49.4412 69.5352 50.3162 69.5352C51.1911 69.5352 51.8979 68.8547 51.8979 68.0123C51.8979 67.1698 51.1911 66.4893 50.3162 66.4893C49.4412 66.4893 48.7345 67.1698 48.7345 68.0123Z" fill="white"/>
<path fill-rule="evenodd" clip-rule="evenodd" d="M29 62.909C29 56.2016 34.6537 50.7578 41.6199 50.7578H41.6536V62.7794C41.6536 62.8604 41.5863 62.909 41.519 62.909H40.4589H39.9373C39.3988 62.9252 38.9613 63.3627 38.9445 63.8811V74.7848C33.2571 73.6021 29 68.7416 29 62.909ZM37.6149 59.2477C37.6149 60.0902 38.3216 60.7707 39.1966 60.7707C40.0716 60.7707 40.7783 60.0902 40.7783 59.2477C40.7783 58.4053 40.0716 57.7248 39.1966 57.7248C38.3216 57.7248 37.6149 58.4053 37.6149 59.2477Z" fill="white"/>
</svg>
