<svg width="200" height="120" viewBox="0 0 200 120" fill="none" xmlns="http://www.w3.org/2000/svg">
<path d="M68.7731 50.8574C67.3023 50.8574 65.5584 52.3829 64.1201 54.9474C62.621 57.6035 61.7266 60.8915 61.7266 63.7467C61.7266 67.927 63.9018 72.1424 68.7731 72.1424C73.6399 72.1424 75.8194 67.927 75.8194 63.7467C75.8194 60.8915 74.9255 57.6035 73.4338 54.9474C71.9827 52.3829 70.2396 50.8574 68.7731 50.8574Z" fill="white"/>
<path d="M106.824 57.1284H111.757V71.0017H117.042V57.1284H121.974V51.9971H106.824L106.824 57.1284Z" fill="white"/>
<path d="M133.248 57.1292H141V51.998H133.249C126.126 51.998 122.324 55.8179 122.324 61.5003C122.324 67.1826 126.126 71.0025 133.249 71.0025H141V65.8713H133.248C129.953 65.8713 127.785 64.6004 127.785 61.5003C127.785 58.4002 129.953 57.1292 133.248 57.1292Z" fill="white"/>
<path d="M96.0749 51.9971L93.2576 63.3406L90.4399 51.9971H81.1035V71.0017H86.3884V55.5434L90.2278 71.0017H96.2872L100.129 55.5338V71.0017H105.414V51.9971H96.0749Z" fill="white"/>
</svg>
