<svg width="200" height="120" viewBox="0 0 200 120" fill="none" xmlns="http://www.w3.org/2000/svg">
<mask id="mask0_74_6710" style="mask-type:alpha" maskUnits="userSpaceOnUse" x="88" y="53" width="87" height="18">
<path d="M88.0957 53.4707H175.001V70.8454H88.0957V53.4707Z" fill="white"/>
</mask>
<g mask="url(#mask0_74_6710)">
<path fill-rule="evenodd" clip-rule="evenodd" d="M167.374 57.703C167.374 55.9038 169.033 54.846 170.871 54.846C172.09 54.8489 173.264 55.301 174.17 56.1158L174.682 55.3439C173.637 54.4396 172.295 53.9505 170.913 53.9695C168.4 53.9695 166.418 55.4521 166.418 57.7806C166.418 62.3704 174.041 61.3361 174.041 65.5021C174.041 67.2812 172.615 68.4253 170.657 68.4253C169.186 68.3984 167.782 67.8063 166.736 66.7719L166.118 67.4713C167.326 68.6507 168.946 69.3116 170.634 69.3131C173.354 69.3131 175.002 67.6213 175.002 65.3974C174.997 60.5364 167.374 61.6143 167.374 57.6759V57.7021V57.703ZM154.329 61.9806H160.271V61.1085H154.329V55.0309H161.572V54.1858H153.412V69.0009H161.962V68.155H154.331V61.9806H154.329ZM141.06 53.4864C136.718 53.4341 133.154 56.8902 133.102 61.2062C133.1 61.2934 133.101 61.3806 133.103 61.4678C133.083 63.4212 133.748 65.3198 134.983 66.8338C134.932 67.6004 134.717 68.3472 134.352 69.0234C133.988 69.6996 133.482 70.2895 132.869 70.753C136.51 71.2814 138.499 69.3785 138.597 69.2861C139.393 69.5417 140.224 69.6718 141.06 69.6716C145.583 69.6716 149.022 66.0733 149.022 61.4713C149.125 57.1562 145.689 53.5762 141.347 53.4724C141.25 53.4705 141.153 53.4702 141.056 53.4716L141.06 53.4864ZM124.499 61.5951H120.463V55.0309H123.87C125.063 55.0309 125.533 55.139 125.957 55.3283C126.499 55.5772 126.955 55.9818 127.266 56.4905C127.577 56.9993 127.73 57.5893 127.705 58.1852C127.694 60.1971 126.458 61.5951 124.499 61.5951ZM125.665 62.3128V62.2701C127.414 61.8846 128.65 60.3009 128.65 58.1852C128.684 57.4566 128.507 56.7336 128.14 56.103C127.774 55.4724 127.233 54.9608 126.583 54.6297C125.984 54.3332 125.285 54.1849 123.897 54.1849H119.535V69.0001H120.463V62.4358H124.738L128.273 68.9992H129.361L126.016 62.8213C125.919 62.6398 125.803 62.4691 125.671 62.312H125.666L125.665 62.3128ZM107.014 61.9535H112.956V61.1076H107.011V55.0317H114.246V54.1858H106.086V69.0009H114.634V68.155H107.011L107.015 61.9544L107.014 61.9535ZM98.4666 61.1512H89.0088V54.1998H88.0957V68.9992H89.0088V61.9963H98.4666V68.9992H99.3832V54.1858H98.4666V61.1503V61.1512Z" fill="white"/>
</g>
<mask id="mask1_74_6710" style="mask-type:alpha" maskUnits="userSpaceOnUse" x="25" y="53" width="57" height="21">
<path d="M25 53.9004H81.0032V73.5295H25V53.9004Z" fill="white"/>
</mask>
<g mask="url(#mask1_74_6710)">
<path fill-rule="evenodd" clip-rule="evenodd" d="M42.8858 69.1821C42.3075 69.1821 41.753 69.4118 41.3441 69.8207C40.9352 70.2295 40.7055 70.7841 40.7055 71.3623C40.7074 71.6487 40.7656 71.932 40.8769 72.1959C40.9882 72.4599 41.1504 72.6993 41.3542 72.9005C41.558 73.1017 41.7995 73.2609 42.0648 73.3688C42.3302 73.4767 42.6142 73.5313 42.9006 73.5295C43.4785 73.5295 44.0328 73.3 44.4416 72.8915C44.8504 72.483 45.0804 71.9289 45.0808 71.351C45.0787 70.7737 44.8476 70.2209 44.4381 69.8141C44.0286 69.4072 43.4743 69.1796 42.8971 69.1812H42.8858V69.1821ZM75.0974 65.9309C74.7076 65.9283 74.3186 65.951 73.9314 65.9963V65.9545C74.3674 65.5446 74.7573 65.0893 75.0974 64.5992L80.9256 56.4016V54.1516H69.5605V57.2789H75.0808C75.4706 57.2806 75.8605 57.2597 76.2477 57.217V57.2588C75.8102 57.6665 75.4192 58.1213 75.0817 58.6149L69.2919 66.7646V69.0582H81.0041V65.9309H75.0974ZM61.4003 69.0574H65.0718V54.1516H61.4003V69.0574ZM53.2724 63.5745C53.2724 65.1382 52.2459 65.9728 50.6718 65.9728C49.0985 65.9728 48.0686 65.1382 48.0686 63.5745V54.1507H44.3971V63.5754C44.3971 66.9347 46.8721 69.3085 50.6919 69.3085C54.5116 69.3085 56.9474 66.9347 56.9474 63.5754V54.1507H53.2715V63.5754L53.2724 63.5745ZM39.2055 65.9292C40.1554 64.6512 40.6776 63.106 40.6977 61.5138C40.6977 57.2361 37.4849 53.9004 32.8488 53.9004C28.2137 53.9004 25 57.2361 25 61.5138C25 64.4178 26.4023 66.919 28.7064 68.2402C30.5055 65.6109 28.8503 68.0239 30.6686 65.3318C30.0649 64.9004 29.578 64.3255 29.2519 63.6589C28.9258 62.9924 28.7707 62.2552 28.8006 61.5138C28.8006 59.0736 30.4794 57.2361 32.8497 57.2361C35.1581 57.2361 36.8988 59.0736 36.8988 61.5138C36.9022 62.1772 36.7698 62.8342 36.5099 63.4446L35.0186 62.0082L32.9622 64.3245L34.4858 65.6414C36.9765 67.9577 34.6689 65.8036 37.1709 68.0815L38.725 69.5178L40.8006 67.2007L39.2064 65.9309L39.2055 65.9292Z" fill="white"/>
</g>
</svg>
