<svg width="200" height="120" viewBox="0 0 200 120" fill="none" xmlns="http://www.w3.org/2000/svg">
<path d="M34 67.3956V54.7676H37.3504V56.1731C37.7179 55.6406 38.2111 55.2071 38.7863 54.9112C39.3813 54.6173 40.0373 54.468 40.7008 54.4755C41.1752 54.4594 41.6471 54.5502 42.0817 54.7412V57.6744C41.8209 57.5615 41.549 57.4765 41.2704 57.4205C40.9794 57.3643 40.6837 57.3362 40.3873 57.3368C39.7648 57.3288 39.1524 57.4947 38.6188 57.8157C38.0788 58.1548 37.6405 58.6339 37.3504 59.202V67.3956H34Z" fill="white"/>
<path d="M48.7303 67.6385C47.8288 67.6558 46.9389 67.4344 46.1504 66.9968C45.4075 66.5768 44.7985 65.955 44.3939 65.2034C43.9655 64.4021 43.7488 63.5044 43.7645 62.5958V54.7686H47.0599V62.1122C47.0432 62.4671 47.0982 62.8218 47.2215 63.155C47.3449 63.4882 47.534 63.7932 47.7778 64.0516C48.0312 64.2955 48.3317 64.485 48.661 64.6085C48.9902 64.732 49.3411 64.7869 49.6923 64.77C50.211 64.7817 50.7248 64.6684 51.1904 64.4396C51.6235 64.2212 52.0002 63.9058 52.2913 63.5177V54.7686H55.6106V67.3966H52.2913V66.379C51.3017 67.2266 50.0324 67.6756 48.7303 67.6385Z" fill="white"/>
<path d="M64.0407 67.5667C62.9016 67.5787 61.7813 67.2763 60.8028 66.6928C59.8456 66.1227 59.0499 65.3175 58.491 64.3534C57.9116 63.3576 57.6138 62.2228 57.6295 61.0707C57.6188 59.9356 57.9093 58.818 58.4714 57.832C59.0336 56.8459 59.8472 56.0268 60.8292 55.4582C61.8377 54.8793 62.9834 54.5824 64.146 54.5986C64.7547 54.5995 65.36 54.6882 65.9433 54.862C66.519 55.0335 67.069 55.2824 67.5778 55.6019V50.4276L70.8971 49.8721V67.3967H67.6257V66.3552C66.6049 67.1582 65.3392 67.5859 64.0407 67.5667ZM64.5744 64.7293C65.148 64.7354 65.7171 64.6288 66.2497 64.4157C66.7527 64.2146 67.2072 63.9085 67.5826 63.5177V58.5973C67.202 58.2194 66.7462 57.9257 66.2449 57.7353C65.7107 57.5287 65.1422 57.4255 64.5697 57.4312C63.9123 57.4239 63.2647 57.589 62.691 57.91C62.143 58.2172 61.6869 58.6652 61.37 59.2078C61.0507 59.7786 60.8843 60.4222 60.8867 61.0762C60.8893 61.7302 61.0607 62.3725 61.3844 62.9407C61.7105 63.482 62.1693 63.9312 62.7173 64.2457C63.2815 64.5715 63.9232 64.7386 64.5744 64.7293Z" fill="white"/>
<path d="M77.5135 67.6136C76.6943 67.6285 75.8822 67.4591 75.1371 67.118C74.4812 66.8175 73.92 66.343 73.5146 65.746C73.1218 65.1498 72.919 64.4486 72.933 63.7347C72.9086 63.1886 73.0197 62.645 73.2565 62.1524C73.4932 61.6598 73.8483 61.2335 74.2899 60.9117C75.1946 60.2412 76.4542 59.906 78.0687 59.906C79.127 59.8982 80.1789 60.0698 81.1799 60.4136V59.4942C81.1799 58.7759 80.9548 58.218 80.5025 57.8444C80.0503 57.471 79.3873 57.2866 78.5162 57.2866C77.9339 57.2964 77.3555 57.3825 76.7956 57.5428C76.0653 57.749 75.3523 58.0123 74.6632 58.3305L73.4667 55.8571C74.3949 55.4472 75.3555 55.1149 76.3384 54.8634C77.225 54.6396 78.1356 54.5254 79.0499 54.5234C80.7778 54.5234 82.1108 54.9321 83.0489 55.7493C83.987 56.5667 84.4553 57.7176 84.4536 59.2021V67.3958H81.1703V66.4978C80.6665 66.8781 80.0993 67.166 79.4951 67.3479C78.8507 67.531 78.1833 67.6205 77.5135 67.6136ZM76.0776 63.6629C76.0734 63.893 76.1293 64.1203 76.2396 64.3223C76.35 64.5242 76.5111 64.6939 76.707 64.8146C77.2108 65.1195 77.7941 65.2671 78.3822 65.2384C78.8937 65.2432 79.4034 65.1779 79.8971 65.0444C80.356 64.915 80.7869 64.7015 81.1679 64.4147V62.571C80.7652 62.3947 80.3425 62.2684 79.9091 62.1951C79.4445 62.1211 78.9747 62.085 78.5043 62.0874C77.8837 62.0523 77.266 62.1953 76.7238 62.4992C76.5228 62.6183 76.3574 62.789 76.2446 62.9936C76.1318 63.1982 76.0758 63.4293 76.0824 63.6629H76.0776Z" fill="white"/>
<path d="M98.1994 72.5803C97.2459 72.5838 96.2949 72.4826 95.3634 72.2786C94.508 72.0935 93.6786 71.8041 92.8937 71.4166L94.0664 68.8498C94.7259 69.1708 95.4152 69.4267 96.1245 69.6136C96.7811 69.7833 97.4565 69.8694 98.1348 69.8699C99.1032 69.8699 99.8426 69.6552 100.353 69.2258C100.861 68.7972 101.117 68.1626 101.117 67.3222V66.3285C100.111 67.0634 98.8962 67.4547 97.6513 67.4443C96.5272 67.4531 95.4211 67.1625 94.4462 66.6025C93.4714 66.0425 92.663 65.2332 92.104 64.2574C91.5335 63.2663 91.24 62.1398 91.2544 60.9962C91.24 59.8555 91.538 58.7327 92.1159 57.7494C92.6787 56.7888 93.4853 55.9941 94.4541 55.446C95.4658 54.8738 96.6114 54.5813 97.7734 54.5984C98.3692 54.6023 98.9614 54.6909 99.5323 54.8618C100.1 55.0256 100.639 55.2751 101.131 55.6016V54.7684H104.426V67.3725C104.426 69.0374 103.889 70.3216 102.813 71.2251C101.738 72.1285 100.2 72.5803 98.1994 72.5803ZM98.1754 64.6548C98.7388 64.6614 99.298 64.5582 99.8219 64.3507C100.307 64.1595 100.745 63.8663 101.107 63.4912V58.573C100.737 58.2071 100.296 57.9217 99.8099 57.7351C99.2919 57.5375 98.7417 57.4383 98.1874 57.4429C97.5338 57.4346 96.8897 57.5999 96.3207 57.9218C95.7805 58.229 95.33 58.6723 95.0141 59.2076C94.691 59.7536 94.5253 60.3785 94.5354 61.013C94.5272 61.6669 94.6923 62.3113 95.0141 62.8806C95.3254 63.4259 95.7775 63.8775 96.3231 64.1879C96.888 64.506 97.5273 64.668 98.1754 64.6572V64.6548Z" fill="white"/>
<path d="M111.04 67.6151C110.222 67.6298 109.411 67.4605 108.666 67.1194C108.01 66.819 107.449 66.3445 107.044 65.7474C106.651 65.1513 106.448 64.45 106.462 63.7361C106.438 63.1901 106.549 62.6464 106.786 62.1538C107.022 61.6612 107.378 61.2349 107.819 60.9131C108.724 60.2427 109.983 59.9075 111.598 59.9075C112.656 59.8996 113.708 60.0713 114.709 60.4151V59.4957C114.709 58.7773 114.482 58.2194 114.029 57.8459C113.577 57.4723 112.917 57.288 112.043 57.288C111.461 57.298 110.882 57.3841 110.322 57.5442C109.593 57.75 108.881 58.0134 108.193 58.332L106.996 55.8585C107.923 55.4484 108.882 55.1152 109.863 54.8625C110.75 54.6387 111.662 54.5246 112.577 54.5225C114.305 54.5225 115.637 54.9311 116.573 55.7484C117.51 56.5657 117.979 57.7166 117.98 59.2011V67.3971H114.7V66.4993C114.196 66.8798 113.629 67.1676 113.024 67.3493C112.379 67.533 111.711 67.6226 111.04 67.6151ZM109.604 63.6643C109.6 63.8945 109.656 64.1217 109.766 64.3237C109.877 64.5256 110.038 64.6953 110.234 64.816C110.737 65.1216 111.321 65.2692 111.909 65.2398C112.42 65.2447 112.929 65.1794 113.422 65.0459C113.882 64.9172 114.313 64.7036 114.695 64.4161V62.5724C114.291 62.3957 113.868 62.2695 113.434 62.1965C112.969 62.1224 112.499 62.0864 112.029 62.0887C111.408 62.0544 110.791 62.1973 110.248 62.5006C110.05 62.6216 109.888 62.7932 109.778 62.9978C109.669 63.2022 109.615 63.4323 109.624 63.6643H109.604Z" fill="white"/>
<path d="M120.488 67.3971V54.769H123.807V55.7268C124.558 55.0885 125.477 54.6811 126.453 54.5536C127.431 54.4262 128.423 54.5842 129.312 55.0085C129.952 55.3333 130.501 55.8121 130.911 56.4021C131.412 55.8011 132.042 55.3206 132.753 54.9965C133.493 54.6692 134.295 54.5059 135.103 54.5176C135.974 54.5008 136.832 54.7236 137.585 55.1617C138.302 55.5851 138.889 56.1971 139.282 56.9312C139.706 57.7328 139.919 58.6295 139.9 59.5363V67.3899H136.575V60.0535C136.575 59.2274 136.362 58.5785 135.934 58.1021C135.715 57.8627 135.447 57.6743 135.147 57.5502C134.848 57.4261 134.525 57.3692 134.201 57.3837C133.73 57.3791 133.263 57.4832 132.837 57.6878C132.407 57.9073 132.044 58.238 131.784 58.6455C131.798 58.7917 131.816 58.9377 131.832 59.0814C131.849 59.2348 131.857 59.3891 131.856 59.5435V67.3971H128.529V60.0535C128.529 59.2274 128.316 58.5785 127.888 58.1021C127.669 57.8627 127.401 57.6743 127.102 57.5502C126.802 57.4261 126.479 57.3692 126.155 57.3837C125.691 57.3757 125.231 57.4748 124.81 57.6735C124.407 57.8752 124.061 58.1758 123.806 58.5474V67.3971H120.488Z" fill="white"/>
<path d="M148.617 67.6389C147.444 67.6528 146.286 67.3622 145.259 66.7952C144.231 66.2282 143.368 65.4044 142.754 64.404C142.149 63.4047 141.839 62.2555 141.856 61.0878C141.842 59.9442 142.13 58.8171 142.691 57.8209C143.253 56.8247 144.068 55.9948 145.054 55.4155C146.044 54.8325 147.175 54.5311 148.325 54.5439C149.466 54.5238 150.589 54.8303 151.561 55.4275C152.505 56.0177 153.274 56.8502 153.789 57.8386C154.343 58.9164 154.622 60.1151 154.6 61.3273V62.2012H145.247C145.388 62.6985 145.634 63.1603 145.965 63.5565C146.3 63.9576 146.723 64.277 147.2 64.4903C147.696 64.7107 148.233 64.8225 148.775 64.8183C149.302 64.8217 149.827 64.735 150.326 64.562C150.787 64.4089 151.209 64.1573 151.563 63.8246L153.743 65.812C152.315 67.0326 150.485 67.6801 148.608 67.6293L148.617 67.6389ZM145.199 59.8331H151.355C151.235 59.3533 151.015 58.904 150.711 58.5138C150.423 58.1421 150.054 57.8395 149.635 57.6279C149.212 57.4191 148.748 57.3117 148.277 57.3142C147.792 57.3072 147.312 57.4103 146.872 57.6159C146.455 57.8161 146.092 58.1152 145.817 58.4874C145.525 58.8909 145.315 59.3482 145.199 59.8331Z" fill="white"/>
<path d="M161.458 67.6395C160.38 67.6475 159.307 67.4966 158.273 67.1918C157.344 66.9246 156.469 66.4931 155.691 65.918L157.34 63.6887C157.993 64.1346 158.697 64.5011 159.436 64.7806C160.076 65.0166 160.753 65.1391 161.434 65.1421C162.05 65.1701 162.663 65.0416 163.215 64.7687C163.657 64.5164 163.879 64.1892 163.88 63.7869C163.886 63.6357 163.855 63.4853 163.789 63.3488C163.724 63.2123 163.626 63.0939 163.504 63.004C163.147 62.7684 162.735 62.626 162.308 62.5897L159.881 62.2354C158.637 62.0406 157.688 61.6319 157.034 61.0094C156.706 60.6919 156.449 60.3087 156.28 59.8849C156.111 59.4612 156.033 59.0063 156.052 58.5504C156.033 57.7887 156.26 57.0411 156.696 56.417C157.16 55.7901 157.795 55.3103 158.525 55.0353C159.405 54.698 160.343 54.5354 161.286 54.5565C162.208 54.5549 163.126 54.6847 164.012 54.942C164.899 55.2058 165.737 55.6101 166.496 56.1392L164.895 58.2942C164.274 57.8909 163.602 57.5728 162.896 57.3484C162.281 57.1573 161.641 57.0589 160.996 57.0563C160.496 57.0356 159.999 57.1533 159.561 57.3963C159.395 57.4805 159.254 57.6088 159.156 57.7671C159.058 57.9254 159.005 58.1078 159.003 58.2942C159 58.4482 159.035 58.6006 159.105 58.738C159.174 58.8754 159.277 58.9935 159.403 59.0819C159.8 59.3267 160.247 59.4766 160.711 59.5201L163.134 59.8601C164.394 60.0373 165.352 60.4411 166.006 61.0717C166.331 61.378 166.587 61.7498 166.758 62.1624C166.929 62.5752 167.011 63.0194 166.999 63.4661C167.014 64.2457 166.761 65.0066 166.281 65.621C165.758 66.2725 165.079 66.7808 164.307 67.0984C163.405 67.4746 162.435 67.6589 161.458 67.6395Z" fill="white"/>
<path d="M82.6422 49.0683L80.2968 46.7217L76.9648 50.0554L79.3103 52.402L82.6422 49.0683Z" fill="white"/>
</svg>
