<svg width="200" height="120" viewBox="0 0 200 120" fill="none" xmlns="http://www.w3.org/2000/svg">
<path d="M70.9344 54.8389C71.6077 55.6942 72.1777 56.6234 72.6328 57.6079L59.722 66.9594L54.3262 63.636V59.6376L59.722 62.9611L70.9344 54.8389Z" fill="white"/>
<path d="M48.8194 63.3534C48.8194 63.174 48.8238 62.9958 48.8327 62.8186L45.5627 62.6611C45.5516 62.8908 45.5449 63.1227 45.5449 63.3567C45.5435 65.185 45.9095 66.9956 46.622 68.6846C47.3344 70.3737 48.3792 71.9079 49.6964 73.1992L52.0159 70.9212C51.0019 69.9289 50.1976 68.7495 49.649 67.4508C49.1004 66.152 48.8185 64.7595 48.8194 63.3534Z" fill="white"/>
<path d="M59.7179 52.6439C59.9004 52.6439 60.0818 52.6505 60.2621 52.6593L60.4257 49.4451C60.1913 49.4342 59.9553 49.4287 59.7179 49.4287C57.8562 49.4265 56.0126 49.7856 54.2926 50.4854C52.5726 51.1853 51.0103 52.2121 49.6953 53.5068L52.0148 55.7859C53.0247 54.7893 54.2252 53.9986 55.5472 53.4594C56.8691 52.9202 58.2865 52.6431 59.7179 52.6439Z" fill="white"/>
<path d="M59.7187 74.0637C59.5362 74.0637 59.3548 74.0637 59.1734 74.0495L59.0098 77.2625C59.245 77.2742 59.4813 77.28 59.7187 77.28C61.5796 77.2819 63.4224 76.9226 65.1414 76.2225C66.8605 75.5225 68.4218 74.4956 69.7358 73.2008L67.4207 70.9229C66.4106 71.919 65.2103 72.7092 63.8886 73.2482C62.5669 73.7872 61.1498 74.0644 59.7187 74.0637Z" fill="white"/>
<path d="M65.8631 54.5131L68.6189 52.5172C66.1001 50.5131 62.9559 49.4222 59.7148 49.4278V52.6441C61.9096 52.6414 64.0534 53.2931 65.8631 54.5131Z" fill="white"/>
<path d="M73.8932 63.354C73.895 62.5173 73.8205 61.6821 73.6706 60.8584L70.6199 63.0675C70.6199 63.1627 70.6199 63.2578 70.6199 63.354C70.6207 64.8504 70.3014 66.3303 69.6829 67.6976C69.0643 69.065 68.1603 70.2894 67.0293 71.2915L69.2297 73.6811C70.7001 72.3768 71.875 70.7835 72.6784 69.0045C73.4818 67.2255 73.8957 65.3004 73.8932 63.354Z" fill="white"/>
<path d="M59.7191 74.0641C58.196 74.0647 56.6899 73.7509 55.2981 73.1431C53.9064 72.5354 52.66 71.6472 51.6398 70.5361L49.209 72.6971C50.5362 74.1421 52.1577 75.2967 53.9683 76.0863C55.7789 76.8759 57.7381 77.2827 59.7191 77.2804V74.0641Z" fill="white"/>
<path d="M52.4099 55.4169L50.2106 53.0273C48.7399 54.3313 47.5645 55.9245 46.7607 57.7036C45.9569 59.4826 45.5427 61.4078 45.5449 63.3543H48.8194C48.8187 61.858 49.138 60.3782 49.7565 59.0108C50.375 57.6435 51.279 56.4191 52.4099 55.4169Z" fill="white"/>
<path d="M127.34 57.3927L131.395 54.4902H117.822V71.9317H131.395V69.0292H121.695V64.5616H129.97V61.6591H121.695V57.3927H127.34Z" fill="white"/>
<path d="M108.688 61.285H103.976V57.3918H111.496L115.549 54.4805H100.105V71.922H108.19C112.722 71.922 115.323 69.9264 115.323 66.446C115.323 63.1165 112.967 61.285 108.688 61.285ZM108.015 69.0186H103.976V64.1857H108.015C110.467 64.1857 111.616 64.9956 111.616 66.6022C111.616 68.2087 110.393 69.0186 108.015 69.0186Z" fill="white"/>
<path d="M141.37 54.4873H133.982V71.9287H137.855V66.9879H141.37C146.084 66.9879 149 64.5783 149 60.7283C149 56.8783 146.084 54.4873 141.37 54.4873ZM141.289 64.0832H137.855V57.392H141.289C143.768 57.392 145.137 58.5809 145.137 60.7389C145.137 62.8969 143.768 64.0832 141.289 64.0832Z" fill="white"/>
<path d="M94.295 67.8129C93.2947 68.3392 92.1739 68.6116 91.0364 68.6052C87.6319 68.6052 85.1621 66.244 85.1621 62.9926C85.1621 59.7412 87.6319 57.3749 91.0364 57.3749C92.2642 57.3546 93.4665 57.7163 94.4676 58.4071L97.1764 56.4691L96.9932 56.3427C95.4131 54.9931 93.3018 54.2783 90.8851 54.2783C88.2639 54.2783 85.8871 55.135 84.1901 56.6936C83.332 57.4962 82.6535 58.4619 82.1965 59.5305C81.7396 60.5992 81.5142 61.7478 81.5345 62.9048C81.5163 64.0736 81.7407 65.234 82.1942 66.3167C82.6478 67.3994 83.3211 68.3822 84.1742 69.2064C85.8791 70.827 88.2506 71.7198 90.8532 71.7198C93.5726 71.7198 95.9495 70.7985 97.5589 69.1213L95.1342 67.3666L94.295 67.8129Z" fill="white"/>
</svg>
