<svg width="200" height="120" viewBox="0 0 200 120" fill="none" xmlns="http://www.w3.org/2000/svg">
<path fill-rule="evenodd" clip-rule="evenodd" d="M117.519 79.501H81.4805C80.6628 79.501 80 78.8381 80 78.0203V41.9792C80 41.1614 80.6628 40.4989 81.4805 40.4989H117.519C118.337 40.4989 119 41.1614 119 41.9792V78.0203C119 78.8381 118.337 79.501 117.519 79.501ZM110.581 52.765H107.513C107.382 52.765 107.275 52.8695 107.275 52.9983V66.9981C107.275 67.1258 107.382 67.2303 107.513 67.2303H110.581C110.711 67.2303 110.819 67.1258 110.819 66.9981V52.9983C110.819 52.8695 110.711 52.765 110.581 52.765ZM100.105 52.765H88.4179C88.2865 52.765 88.1809 52.8695 88.1809 52.9983V66.9981C88.1809 67.1258 88.2865 67.2303 88.4179 67.2303H91.4868C91.6175 67.2303 91.7257 67.1258 91.7257 66.9981V56.0103C91.7257 55.8835 91.8313 55.7782 91.9627 55.7782H98.5734C100.432 55.7782 100.96 57.2021 100.96 58.1206V66.9981C100.96 67.1258 101.067 67.2303 101.198 67.2303H104.265C104.396 67.2303 104.503 67.1258 104.503 66.9981V57.0666C104.503 56.2473 104.404 55.0694 103.348 54.0325C102.242 52.9501 101.233 52.765 100.105 52.765ZM94.7332 58.3413H97.9552C98.0855 58.3413 98.1922 58.4458 98.1922 58.5739V66.9994C98.1922 67.1266 98.0855 67.2311 97.9552 67.2311H94.7332C94.6019 67.2311 94.494 67.1266 94.494 66.9994V58.5739C94.494 58.4459 94.6019 58.3413 94.7332 58.3413Z" fill="white"/>
</svg>
